<?xml version="1.0" ?>
<svg baseProfile="full" height="344px" version="1.1" viewBox="-2.2035 -2.4035 8.407 4.807" width="600px" xmlns="http://www.w3.org/2000/svg" xmlns:ev="http://www.w3.org/2001/xml-events" xmlns:xlink="http://www.w3.org/1999/xlink">
	<defs/>
	<path d="M -1,0 A 1.0,2.0 0 1,1 1,0" fill="none" stroke="#000000" stroke-width="0.007"/>
	<path d="M -1.5,0.0 L 1.5,0.0" fill="none" stroke="#000000" stroke-width="0.007"/>
	<path d="M 3.0,0.0 A 1.0,2.0 0 1,1 5.0,0.0 M 5.0,-1.22464679915e-16 A 1.0,2.0 180 1,1 3.0,1.22464679915e-16 M 2.5,0.0 L 5.5,0.0 M 2.70096189432,-0.75 L 5.29903810568,0.75 M 3.25,-1.29903810568 L 4.75,1.29903810568 M 4.0,-1.5 L 4.0,1.5 M 4.75,-1.29903810568 L 3.25,1.29903810568 M 5.29903810568,-0.75 L 2.70096189432,0.75 M 5.5,-1.83697019872e-16 L 2.5,1.83697019872e-16 M 5.29903810568,0.75 L 2.70096189432,-0.75 M 4.75,1.29903810568 L 3.25,-1.29903810568 M 4.0,1.5 L 4.0,-1.5 M 3.25,1.29903810568 L 4.75,-1.29903810568 M 2.70096189432,0.75 L 5.29903810568,-0.75" fill="none" stroke="#000000" stroke-width="0.007"/>
</svg>
